<mxfile host="app.diagrams.net" modified="2021-05-23T05:58:38.393Z" agent="5.0 (Windows NT 10.0; Win64; x64) AppleWebKit/537.36 (KHTML, like Gecko) Chrome/90.0.4430.93 Safari/537.36 Edg/90.0.818.56" etag="7WrBPXfyGFlt6IWlfR_5" version="14.7.0" type="github">
  <diagram name="Page-1" id="b5b7bab2-c9e2-2cf4-8b2a-24fd1a2a6d21">
    <mxGraphModel dx="2076" dy="1170" grid="1" gridSize="10" guides="1" tooltips="1" connect="1" arrows="1" fold="1" page="0" pageScale="1" pageWidth="827" pageHeight="1169" background="none" math="0" shadow="0">
      <root>
        <mxCell id="0" />
        <mxCell id="1" parent="0" />
        <mxCell id="6e0c8c40b5770093-72" value="" style="shape=folder;fontStyle=1;spacingTop=10;tabWidth=194;tabHeight=22;tabPosition=left;html=1;rounded=0;shadow=0;comic=0;labelBackgroundColor=none;strokeWidth=1;fillColor=none;fontFamily=Verdana;fontSize=10;align=center;" parent="1" vertex="1">
          <mxGeometry x="325" y="960" width="2155" height="660" as="geometry" />
        </mxCell>
        <mxCell id="6e0c8c40b5770093-6" value="" style="group" parent="1" vertex="1" connectable="0">
          <mxGeometry x="465.5" y="174.5" width="130" height="70" as="geometry" />
        </mxCell>
        <mxCell id="6e0c8c40b5770093-4" value="package" style="shape=folder;fontStyle=1;spacingTop=10;tabWidth=50;tabHeight=17;tabPosition=left;html=1;rounded=0;shadow=0;comic=0;labelBackgroundColor=none;strokeWidth=1;fontFamily=Verdana;fontSize=10;align=center;" parent="6e0c8c40b5770093-6" vertex="1">
          <mxGeometry width="130" height="70" as="geometry" />
        </mxCell>
        <mxCell id="6e0c8c40b5770093-5" value="" style="triangle;whiteSpace=wrap;html=1;rounded=0;shadow=0;comic=0;labelBackgroundColor=none;strokeWidth=1;fontFamily=Verdana;fontSize=10;align=center;rotation=-90;" parent="6e0c8c40b5770093-6" vertex="1">
          <mxGeometry x="100" y="25" width="15" height="20" as="geometry" />
        </mxCell>
        <mxCell id="6e0c8c40b5770093-7" value="" style="group" parent="1" vertex="1" connectable="0">
          <mxGeometry x="765.5" y="174.5" width="130" height="70" as="geometry" />
        </mxCell>
        <mxCell id="6e0c8c40b5770093-8" value="package" style="shape=folder;fontStyle=1;spacingTop=10;tabWidth=50;tabHeight=17;tabPosition=left;html=1;rounded=0;shadow=0;comic=0;labelBackgroundColor=none;strokeWidth=1;fontFamily=Verdana;fontSize=10;align=center;" parent="6e0c8c40b5770093-7" vertex="1">
          <mxGeometry width="130" height="70" as="geometry" />
        </mxCell>
        <mxCell id="6e0c8c40b5770093-9" value="" style="triangle;whiteSpace=wrap;html=1;rounded=0;shadow=0;comic=0;labelBackgroundColor=none;strokeWidth=1;fontFamily=Verdana;fontSize=10;align=center;rotation=-90;" parent="6e0c8c40b5770093-7" vertex="1">
          <mxGeometry x="100" y="25" width="15" height="20" as="geometry" />
        </mxCell>
        <mxCell id="6e0c8c40b5770093-18" value="" style="group" parent="1" vertex="1" connectable="0">
          <mxGeometry x="361.5" y="294.5" width="280" height="130" as="geometry" />
        </mxCell>
        <mxCell id="6e0c8c40b5770093-11" value="" style="shape=folder;fontStyle=1;spacingTop=10;tabWidth=123;tabHeight=24;tabPosition=left;html=1;rounded=0;shadow=0;comic=0;labelBackgroundColor=none;strokeWidth=1;fontFamily=Verdana;fontSize=10;align=center;" parent="6e0c8c40b5770093-18" vertex="1">
          <mxGeometry width="280" height="130" as="geometry" />
        </mxCell>
        <mxCell id="6e0c8c40b5770093-13" value="" style="triangle;whiteSpace=wrap;html=1;rounded=0;shadow=0;comic=0;labelBackgroundColor=none;strokeWidth=1;fontFamily=Verdana;fontSize=10;align=center;rotation=-90;" parent="6e0c8c40b5770093-18" vertex="1">
          <mxGeometry x="96" y="2" width="15" height="20" as="geometry" />
        </mxCell>
        <mxCell id="6e0c8c40b5770093-15" value="package" style="shape=folder;fontStyle=1;spacingTop=10;tabWidth=50;tabHeight=17;tabPosition=left;html=1;rounded=0;shadow=0;comic=0;labelBackgroundColor=none;strokeWidth=1;fontFamily=Verdana;fontSize=10;align=center;" parent="6e0c8c40b5770093-18" vertex="1">
          <mxGeometry x="18" y="40" width="112" height="70" as="geometry" />
        </mxCell>
        <mxCell id="6e0c8c40b5770093-17" value="package" style="shape=folder;fontStyle=1;spacingTop=10;tabWidth=50;tabHeight=17;tabPosition=left;html=1;rounded=0;shadow=0;comic=0;labelBackgroundColor=none;strokeWidth=1;fontFamily=Verdana;fontSize=10;align=center;" parent="6e0c8c40b5770093-18" vertex="1">
          <mxGeometry x="148" y="40" width="112" height="70" as="geometry" />
        </mxCell>
        <mxCell id="6e0c8c40b5770093-19" value="" style="group" parent="1" vertex="1" connectable="0">
          <mxGeometry x="685.5" y="298.5" width="280" height="130" as="geometry" />
        </mxCell>
        <mxCell id="6e0c8c40b5770093-20" value="" style="shape=folder;fontStyle=1;spacingTop=10;tabWidth=123;tabHeight=24;tabPosition=left;html=1;rounded=0;shadow=0;comic=0;labelBackgroundColor=none;strokeWidth=1;fontFamily=Verdana;fontSize=10;align=center;" parent="6e0c8c40b5770093-19" vertex="1">
          <mxGeometry width="280" height="130" as="geometry" />
        </mxCell>
        <mxCell id="6e0c8c40b5770093-21" value="" style="triangle;whiteSpace=wrap;html=1;rounded=0;shadow=0;comic=0;labelBackgroundColor=none;strokeWidth=1;fontFamily=Verdana;fontSize=10;align=center;rotation=-90;" parent="6e0c8c40b5770093-19" vertex="1">
          <mxGeometry x="96" y="2" width="15" height="20" as="geometry" />
        </mxCell>
        <mxCell id="6e0c8c40b5770093-22" value="package" style="shape=folder;fontStyle=1;spacingTop=10;tabWidth=50;tabHeight=17;tabPosition=left;html=1;rounded=0;shadow=0;comic=0;labelBackgroundColor=none;strokeWidth=1;fontFamily=Verdana;fontSize=10;align=center;" parent="6e0c8c40b5770093-19" vertex="1">
          <mxGeometry x="18" y="40" width="112" height="70" as="geometry" />
        </mxCell>
        <mxCell id="6e0c8c40b5770093-23" value="package" style="shape=folder;fontStyle=1;spacingTop=10;tabWidth=50;tabHeight=17;tabPosition=left;html=1;rounded=0;shadow=0;comic=0;labelBackgroundColor=none;strokeWidth=1;fontFamily=Verdana;fontSize=10;align=center;" parent="6e0c8c40b5770093-19" vertex="1">
          <mxGeometry x="148" y="40" width="112" height="70" as="geometry" />
        </mxCell>
        <mxCell id="6e0c8c40b5770093-30" value="" style="group" parent="1" vertex="1" connectable="0">
          <mxGeometry x="1045.5" y="294.5" width="230" height="480" as="geometry" />
        </mxCell>
        <mxCell id="6e0c8c40b5770093-24" value="" style="group" parent="6e0c8c40b5770093-30" vertex="1" connectable="0">
          <mxGeometry width="230" height="480" as="geometry" />
        </mxCell>
        <mxCell id="6e0c8c40b5770093-25" value="" style="shape=folder;fontStyle=1;spacingTop=10;tabWidth=123;tabHeight=24;tabPosition=left;html=1;rounded=0;shadow=0;comic=0;labelBackgroundColor=none;strokeWidth=1;fontFamily=Verdana;fontSize=10;align=center;" parent="6e0c8c40b5770093-24" vertex="1">
          <mxGeometry width="230" height="480" as="geometry" />
        </mxCell>
        <mxCell id="6e0c8c40b5770093-29" value="" style="triangle;whiteSpace=wrap;html=1;rounded=0;shadow=0;comic=0;labelBackgroundColor=none;strokeWidth=1;fontFamily=Verdana;fontSize=10;align=center;rotation=-90;" parent="6e0c8c40b5770093-24" vertex="1">
          <mxGeometry x="100" y="2" width="15" height="20" as="geometry" />
        </mxCell>
        <mxCell id="6e0c8c40b5770093-27" value="package" style="shape=folder;fontStyle=1;spacingTop=10;tabWidth=50;tabHeight=17;tabPosition=left;html=1;rounded=0;shadow=0;comic=0;labelBackgroundColor=none;strokeWidth=1;fontFamily=Verdana;fontSize=10;align=center;" parent="6e0c8c40b5770093-24" vertex="1">
          <mxGeometry x="59" y="79" width="112" height="70" as="geometry" />
        </mxCell>
        <mxCell id="6e0c8c40b5770093-31" value="package" style="shape=folder;fontStyle=1;spacingTop=10;tabWidth=50;tabHeight=17;tabPosition=left;html=1;rounded=0;shadow=0;comic=0;labelBackgroundColor=none;strokeWidth=1;fontFamily=Verdana;fontSize=10;align=center;" parent="6e0c8c40b5770093-24" vertex="1">
          <mxGeometry x="59" y="205" width="112" height="70" as="geometry" />
        </mxCell>
        <mxCell id="6e0c8c40b5770093-28" value="package" style="shape=folder;fontStyle=1;spacingTop=10;tabWidth=50;tabHeight=17;tabPosition=left;html=1;rounded=0;shadow=0;comic=0;labelBackgroundColor=none;strokeWidth=1;fontFamily=Verdana;fontSize=10;align=center;" parent="6e0c8c40b5770093-24" vertex="1">
          <mxGeometry x="59" y="340" width="112" height="70" as="geometry" />
        </mxCell>
        <mxCell id="6e0c8c40b5770093-33" value="" style="shape=folder;fontStyle=1;spacingTop=10;tabWidth=123;tabHeight=24;tabPosition=left;html=1;rounded=0;shadow=0;comic=0;labelBackgroundColor=none;strokeColor=#000000;strokeWidth=1;fillColor=#ffffff;fontFamily=Verdana;fontSize=10;fontColor=#000000;align=center;" parent="1" vertex="1">
          <mxGeometry x="360" y="1050" width="710" height="440" as="geometry" />
        </mxCell>
        <mxCell id="6e0c8c40b5770093-65" style="edgeStyle=none;rounded=0;html=1;dashed=1;labelBackgroundColor=none;startFill=0;endArrow=open;endFill=0;endSize=10;fontFamily=Verdana;fontSize=10;entryX=0;entryY=0;entryPerimeter=0;entryDx=25;entryDy=0;" parent="1" source="6e0c8c40b5770093-42" target="6e0c8c40b5770093-45" edge="1">
          <mxGeometry relative="1" as="geometry" />
        </mxCell>
        <mxCell id="6e0c8c40b5770093-66" style="edgeStyle=none;rounded=0;html=1;dashed=1;labelBackgroundColor=none;startFill=0;endArrow=open;endFill=0;endSize=10;fontFamily=Verdana;fontSize=10;entryX=0.811;entryY=0.269;entryPerimeter=0;entryDx=0;entryDy=0;" parent="1" source="6e0c8c40b5770093-42" target="MS7-FI-OsCwsyewMh9CC-23" edge="1">
          <mxGeometry relative="1" as="geometry" />
        </mxCell>
        <mxCell id="6e0c8c40b5770093-42" value="&lt;p class=&quot;MsoNormal&quot;&gt;&lt;span style=&quot;font-family: &amp;#34;times new roman&amp;#34; ; font-size: 12.0000pt&quot;&gt;Health Detection&lt;/span&gt;&lt;/p&gt;&lt;p class=&quot;MsoNormal&quot;&gt;&lt;span style=&quot;font-weight: normal&quot;&gt;&lt;span style=&quot;font-family: &amp;#34;times new roman&amp;#34; ; font-size: 12pt&quot;&gt;(from&amp;nbsp;&lt;/span&gt;&lt;span style=&quot;font-size: 12px ; font-family: &amp;#34;helvetica&amp;#34;&quot;&gt;Health &amp;amp; Dormancy Management&lt;/span&gt;&lt;span style=&quot;font-family: &amp;#34;times new roman&amp;#34; ; font-size: 12pt&quot;&gt;)&lt;/span&gt;&lt;/span&gt;&lt;/p&gt;" style="shape=folder;fontStyle=1;spacingTop=10;tabWidth=50;tabHeight=17;tabPosition=left;html=1;rounded=0;shadow=0;comic=0;labelBackgroundColor=none;strokeColor=#000000;strokeWidth=1;fillColor=#ffffff;fontFamily=Verdana;fontSize=10;fontColor=#000000;align=center;" parent="1" vertex="1">
          <mxGeometry x="480" y="1120" width="266" height="80" as="geometry" />
        </mxCell>
        <mxCell id="6e0c8c40b5770093-43" value="Register&lt;br&gt;&lt;span style=&quot;font-weight: 400 ; font-family: &amp;#34;times new roman&amp;#34; ; font-size: 12pt&quot;&gt;(from&amp;nbsp;&lt;/span&gt;&lt;span style=&quot;font-size: 12px ; font-weight: 400 ; font-family: &amp;#34;helvetica&amp;#34;&quot;&gt;Health &amp;amp; Dormancy Management&lt;/span&gt;&lt;span style=&quot;font-weight: 400 ; font-family: &amp;#34;times new roman&amp;#34; ; font-size: 12pt&quot;&gt;)&lt;/span&gt;" style="shape=folder;fontStyle=1;spacingTop=10;tabWidth=50;tabHeight=17;tabPosition=left;html=1;rounded=0;shadow=0;comic=0;labelBackgroundColor=none;strokeColor=#000000;strokeWidth=1;fillColor=#ffffff;fontFamily=Verdana;fontSize=10;fontColor=#000000;align=center;" parent="1" vertex="1">
          <mxGeometry x="383.75" y="1240" width="235.5" height="70" as="geometry" />
        </mxCell>
        <mxCell id="6e0c8c40b5770093-44" value="Dormancy Reservation&lt;br&gt;&lt;span style=&quot;font-weight: 400 ; font-family: &amp;#34;times new roman&amp;#34; ; font-size: 12pt&quot;&gt;(from&amp;nbsp;&lt;/span&gt;&lt;span style=&quot;font-size: 12px ; font-weight: 400 ; font-family: &amp;#34;helvetica&amp;#34;&quot;&gt;Health &amp;amp; Dormancy Management&lt;/span&gt;&lt;span style=&quot;font-weight: 400 ; font-family: &amp;#34;times new roman&amp;#34; ; font-size: 12pt&quot;&gt;)&lt;/span&gt;" style="shape=folder;fontStyle=1;spacingTop=10;tabWidth=50;tabHeight=17;tabPosition=left;html=1;rounded=0;shadow=0;comic=0;labelBackgroundColor=none;strokeColor=#000000;strokeWidth=1;fillColor=#ffffff;fontFamily=Verdana;fontSize=10;fontColor=#000000;align=center;" parent="1" vertex="1">
          <mxGeometry x="795.5" y="1190" width="250" height="70" as="geometry" />
        </mxCell>
        <mxCell id="6e0c8c40b5770093-45" value="Surgery System&lt;br&gt;&lt;span style=&quot;font-weight: 400 ; font-family: &amp;#34;times new roman&amp;#34; ; font-size: 12pt&quot;&gt;(from&amp;nbsp;&lt;/span&gt;&lt;span style=&quot;font-size: 12px ; font-weight: 400 ; font-family: &amp;#34;helvetica&amp;#34;&quot;&gt;Health &amp;amp; Dormancy Management&lt;/span&gt;&lt;span style=&quot;font-weight: 400 ; font-family: &amp;#34;times new roman&amp;#34; ; font-size: 12pt&quot;&gt;)&lt;/span&gt;" style="shape=folder;fontStyle=1;spacingTop=10;tabWidth=50;tabHeight=17;tabPosition=left;html=1;rounded=0;shadow=0;comic=0;labelBackgroundColor=none;strokeColor=#000000;strokeWidth=1;fillColor=#ffffff;fontFamily=Verdana;fontSize=10;fontColor=#000000;align=center;" parent="1" vertex="1">
          <mxGeometry x="690" y="1270" width="234.5" height="70" as="geometry" />
        </mxCell>
        <mxCell id="6e0c8c40b5770093-69" style="edgeStyle=elbowEdgeStyle;rounded=0;html=1;entryX=0.643;entryY=0.246;entryPerimeter=0;dashed=1;labelBackgroundColor=none;startFill=0;endArrow=open;endFill=0;endSize=10;fontFamily=Verdana;fontSize=10;" parent="1" edge="1">
          <mxGeometry relative="1" as="geometry">
            <mxPoint x="1624.82" y="1784.5192015137986" as="sourcePoint" />
            <mxPoint x="1624.91" y="1779.9994795496323" as="targetPoint" />
          </mxGeometry>
        </mxCell>
        <mxCell id="6e0c8c40b5770093-47" value="" style="shape=folder;fontStyle=1;spacingTop=10;tabWidth=123;tabHeight=24;tabPosition=left;html=1;rounded=0;shadow=0;comic=0;labelBackgroundColor=none;strokeWidth=1;fontFamily=Verdana;fontSize=10;align=center;" parent="1" vertex="1">
          <mxGeometry x="1049.75" y="1670" width="680.5" height="320" as="geometry" />
        </mxCell>
        <mxCell id="6e0c8c40b5770093-48" value="" style="triangle;whiteSpace=wrap;html=1;rounded=0;shadow=0;comic=0;labelBackgroundColor=none;strokeWidth=1;fontFamily=Verdana;fontSize=10;align=center;rotation=-90;" parent="1" vertex="1">
          <mxGeometry x="649.5" y="776.5" width="15" height="20" as="geometry" />
        </mxCell>
        <mxCell id="6e0c8c40b5770093-58" style="rounded=0;html=1;dashed=1;labelBackgroundColor=none;startFill=0;endArrow=open;endFill=0;endSize=10;fontFamily=Verdana;fontSize=10;entryX=0.592;entryY=0.2;entryPerimeter=0;edgeStyle=elbowEdgeStyle;" parent="1" source="6e0c8c40b5770093-4" target="6e0c8c40b5770093-11" edge="1">
          <mxGeometry relative="1" as="geometry" />
        </mxCell>
        <mxCell id="6e0c8c40b5770093-59" style="rounded=0;html=1;dashed=1;labelBackgroundColor=none;startFill=0;endArrow=open;endFill=0;endSize=10;fontFamily=Verdana;fontSize=10;entryX=0.592;entryY=0.2;entryPerimeter=0;edgeStyle=elbowEdgeStyle;" parent="1" edge="1">
          <mxGeometry relative="1" as="geometry">
            <mxPoint x="843.3275862068965" y="244.5" as="sourcePoint" />
            <mxPoint x="843.3275862068965" y="320.84482758620686" as="targetPoint" />
          </mxGeometry>
        </mxCell>
        <mxCell id="6e0c8c40b5770093-62" style="edgeStyle=none;rounded=0;html=1;dashed=1;labelBackgroundColor=none;startFill=0;endArrow=open;endFill=0;endSize=10;fontFamily=Verdana;fontSize=10;exitX=1.002;exitY=0.668;exitPerimeter=0;" parent="1" source="6e0c8c40b5770093-20" target="6e0c8c40b5770093-25" edge="1">
          <mxGeometry relative="1" as="geometry" />
        </mxCell>
        <mxCell id="6e0c8c40b5770093-63" style="edgeStyle=orthogonalEdgeStyle;rounded=0;html=1;dashed=1;labelBackgroundColor=none;startFill=0;endArrow=open;endFill=0;endSize=10;fontFamily=Verdana;fontSize=10;" parent="1" source="6e0c8c40b5770093-11" target="6e0c8c40b5770093-25" edge="1">
          <mxGeometry relative="1" as="geometry">
            <Array as="points">
              <mxPoint x="665.5" y="359.5" />
              <mxPoint x="665.5" y="464.5" />
            </Array>
          </mxGeometry>
        </mxCell>
        <mxCell id="6e0c8c40b5770093-73" value="&amp;lt;&amp;lt;model&amp;gt;&amp;gt;" style="text;html=1;align=left;verticalAlign=top;spacingTop=-4;fontSize=10;fontFamily=Verdana" parent="1" vertex="1">
          <mxGeometry x="327.5" y="114.5" width="130" height="20" as="geometry" />
        </mxCell>
        <mxCell id="MS7-FI-OsCwsyewMh9CC-1" value="&amp;lt;&amp;lt;layer&amp;gt;&amp;gt;&lt;br&gt;&lt;b&gt;Domain&lt;/b&gt;" style="text;html=1;strokeColor=none;fillColor=none;align=center;verticalAlign=middle;whiteSpace=wrap;rounded=0;" vertex="1" parent="1">
          <mxGeometry x="1337.5" y="1000" width="130" height="20" as="geometry" />
        </mxCell>
        <mxCell id="6e0c8c40b5770093-54" value="" style="triangle;whiteSpace=wrap;html=1;rounded=0;shadow=0;comic=0;labelBackgroundColor=none;strokeWidth=1;fontFamily=Verdana;fontSize=10;align=center;rotation=-90;" parent="1" vertex="1">
          <mxGeometry x="380" y="909.9994795496323" width="15" height="20" as="geometry" />
        </mxCell>
        <mxCell id="MS7-FI-OsCwsyewMh9CC-8" value="" style="group" vertex="1" connectable="0" parent="1">
          <mxGeometry x="1100.25" y="1810" width="234.5" height="130" as="geometry" />
        </mxCell>
        <mxCell id="MS7-FI-OsCwsyewMh9CC-9" value="" style="shape=folder;fontStyle=1;spacingTop=10;tabWidth=50;tabHeight=17;tabPosition=left;html=1;rounded=0;shadow=0;comic=0;labelBackgroundColor=none;strokeWidth=1;fontFamily=Verdana;fontSize=10;align=center;" vertex="1" parent="MS7-FI-OsCwsyewMh9CC-8">
          <mxGeometry x="14.36" y="-20" width="152.425" height="130" as="geometry" />
        </mxCell>
        <mxCell id="MS7-FI-OsCwsyewMh9CC-10" value="&lt;b&gt;Persistency&lt;/b&gt;&lt;br&gt;(from Tecchnical Service" style="text;html=1;strokeColor=none;fillColor=none;align=center;verticalAlign=middle;whiteSpace=wrap;rounded=0;" vertex="1" parent="MS7-FI-OsCwsyewMh9CC-8">
          <mxGeometry x="-0.003125000000002487" y="0.002857142857145334" width="181.15125" height="37.142857142857146" as="geometry" />
        </mxCell>
        <mxCell id="MS7-FI-OsCwsyewMh9CC-16" value="" style="shape=folder;fontStyle=1;spacingTop=10;tabWidth=50;tabHeight=17;tabPosition=left;html=1;rounded=0;shadow=0;comic=0;labelBackgroundColor=none;strokeWidth=1;fontFamily=Verdana;fontSize=10;align=center;" vertex="1" parent="1">
          <mxGeometry x="1536.61" y="1792.78" width="152.425" height="130" as="geometry" />
        </mxCell>
        <mxCell id="MS7-FI-OsCwsyewMh9CC-17" value="&lt;b&gt;Persistency&lt;/b&gt;&lt;br&gt;(from Tecchnical Service" style="text;html=1;strokeColor=none;fillColor=none;align=center;verticalAlign=middle;whiteSpace=wrap;rounded=0;" vertex="1" parent="1">
          <mxGeometry x="1522.246875" y="1812.7828571428572" width="181.15125" height="37.142857142857146" as="geometry" />
        </mxCell>
        <mxCell id="MS7-FI-OsCwsyewMh9CC-18" value="" style="shape=folder;fontStyle=1;spacingTop=10;tabWidth=50;tabHeight=17;tabPosition=left;html=1;rounded=0;shadow=0;comic=0;labelBackgroundColor=none;strokeWidth=1;fontFamily=Verdana;fontSize=10;align=center;" vertex="1" parent="1">
          <mxGeometry x="1324.6100000000001" y="1792.78" width="152.425" height="130" as="geometry" />
        </mxCell>
        <mxCell id="MS7-FI-OsCwsyewMh9CC-19" value="&lt;b&gt;Security&lt;/b&gt;&lt;br&gt;(from Tecchnical Service" style="text;html=1;strokeColor=none;fillColor=none;align=center;verticalAlign=middle;whiteSpace=wrap;rounded=0;" vertex="1" parent="1">
          <mxGeometry x="1310.246875" y="1812.8528571428571" width="181.15125" height="37.142857142857146" as="geometry" />
        </mxCell>
        <mxCell id="MS7-FI-OsCwsyewMh9CC-20" value="&amp;lt;&amp;lt;layer&amp;gt;&amp;gt;&lt;br&gt;&lt;b&gt;Technical Service&lt;/b&gt;" style="text;html=1;strokeColor=none;fillColor=none;align=center;verticalAlign=middle;whiteSpace=wrap;rounded=0;" vertex="1" parent="1">
          <mxGeometry x="1330" y="1700" width="120" height="20" as="geometry" />
        </mxCell>
        <mxCell id="MS7-FI-OsCwsyewMh9CC-21" value="Third-party Service&lt;br&gt;&lt;span style=&quot;font-weight: normal&quot;&gt;(from Domain)&lt;/span&gt;" style="shape=folder;fontStyle=1;spacingTop=10;tabWidth=40;tabHeight=14;tabPosition=left;html=1;" vertex="1" parent="1">
          <mxGeometry x="680" y="1540" width="1480" height="50" as="geometry" />
        </mxCell>
        <mxCell id="MS7-FI-OsCwsyewMh9CC-22" value="&amp;lt;&amp;lt;Subsystem&amp;gt;&amp;gt;&lt;br&gt;&lt;b&gt;Health &amp;amp; Dormancy Management&lt;/b&gt;" style="text;html=1;strokeColor=none;fillColor=none;align=center;verticalAlign=middle;whiteSpace=wrap;rounded=0;" vertex="1" parent="1">
          <mxGeometry x="449.5" y="1080" width="215" height="20" as="geometry" />
        </mxCell>
        <mxCell id="MS7-FI-OsCwsyewMh9CC-23" value="Electronic medical record&lt;br&gt;&lt;span style=&quot;font-weight: 400 ; font-family: &amp;#34;times new roman&amp;#34; ; font-size: 12pt&quot;&gt;(from&amp;nbsp;&lt;/span&gt;&lt;span style=&quot;font-size: 12px ; font-weight: 400 ; font-family: &amp;#34;helvetica&amp;#34;&quot;&gt;Health &amp;amp; Dormancy Management&lt;/span&gt;&lt;span style=&quot;font-weight: 400 ; font-family: &amp;#34;times new roman&amp;#34; ; font-size: 12pt&quot;&gt;)&lt;/span&gt;" style="shape=folder;fontStyle=1;spacingTop=10;tabWidth=50;tabHeight=17;tabPosition=left;html=1;rounded=0;shadow=0;comic=0;labelBackgroundColor=none;strokeColor=#000000;strokeWidth=1;fillColor=#ffffff;fontFamily=Verdana;fontSize=10;fontColor=#000000;align=center;" vertex="1" parent="1">
          <mxGeometry x="465.5" y="1380" width="234.5" height="70" as="geometry" />
        </mxCell>
        <mxCell id="MS7-FI-OsCwsyewMh9CC-24" style="edgeStyle=none;rounded=0;html=1;dashed=1;labelBackgroundColor=none;startFill=0;endArrow=open;endFill=0;endSize=10;fontFamily=Verdana;fontSize=10;entryX=0.452;entryY=0.257;entryPerimeter=0;exitX=0.601;exitY=1.046;exitDx=0;exitDy=0;exitPerimeter=0;entryDx=0;entryDy=0;" edge="1" parent="1" source="6e0c8c40b5770093-43" target="MS7-FI-OsCwsyewMh9CC-23">
          <mxGeometry relative="1" as="geometry">
            <mxPoint x="519.999081372271" y="1330" as="sourcePoint" />
            <mxPoint x="556.9415" y="1431.08" as="targetPoint" />
          </mxGeometry>
        </mxCell>
        <mxCell id="MS7-FI-OsCwsyewMh9CC-25" style="edgeStyle=none;rounded=0;html=1;dashed=1;labelBackgroundColor=none;startFill=0;endArrow=open;endFill=0;endSize=10;fontFamily=Verdana;fontSize=10;entryX=0;entryY=0;entryPerimeter=0;exitX=0.5;exitY=1;exitDx=0;exitDy=0;exitPerimeter=0;entryDx=234.5;entryDy=30.25;" edge="1" parent="1" source="6e0c8c40b5770093-45" target="MS7-FI-OsCwsyewMh9CC-23">
          <mxGeometry relative="1" as="geometry">
            <mxPoint x="823.5003336456007" y="1340" as="sourcePoint" />
            <mxPoint x="906.9865" y="1438.77" as="targetPoint" />
          </mxGeometry>
        </mxCell>
        <mxCell id="MS7-FI-OsCwsyewMh9CC-27" style="edgeStyle=none;rounded=0;html=1;dashed=1;labelBackgroundColor=none;startFill=0;endArrow=open;endFill=0;endSize=10;fontFamily=Verdana;fontSize=10;entryX=0;entryY=0;entryPerimeter=0;entryDx=25;entryDy=0;exitX=0;exitY=0;exitDx=266;exitDy=32.75;exitPerimeter=0;" edge="1" parent="1" source="6e0c8c40b5770093-42" target="6e0c8c40b5770093-44">
          <mxGeometry relative="1" as="geometry">
            <mxPoint x="798.9954545454545" y="1115" as="sourcePoint" />
            <mxPoint x="878.7" y="1185" as="targetPoint" />
          </mxGeometry>
        </mxCell>
        <mxCell id="MS7-FI-OsCwsyewMh9CC-52" value="" style="shape=folder;fontStyle=1;spacingTop=10;tabWidth=123;tabHeight=24;tabPosition=left;html=1;rounded=0;shadow=0;comic=0;labelBackgroundColor=none;strokeColor=#000000;strokeWidth=1;fillColor=#ffffff;fontFamily=Verdana;fontSize=10;fontColor=#000000;align=center;" vertex="1" parent="1">
          <mxGeometry x="1120" y="1050" width="540" height="440" as="geometry" />
        </mxCell>
        <mxCell id="MS7-FI-OsCwsyewMh9CC-57" value="Personnel Inventory&lt;br&gt;&lt;span style=&quot;font-weight: 400 ; font-family: &amp;#34;times new roman&amp;#34; ; font-size: 12pt&quot;&gt;(&lt;/span&gt;&lt;span style=&quot;font-weight: normal&quot;&gt;&lt;span style=&quot;font-family: &amp;#34;times new roman&amp;#34; ; font-size: 12pt&quot;&gt;from&amp;nbsp;&lt;/span&gt;&lt;/span&gt;&lt;span style=&quot;font-size: 12px ; font-family: &amp;#34;helvetica&amp;#34; ; font-weight: normal&quot;&gt;Personnel &amp;amp; Election&lt;/span&gt;&lt;span style=&quot;font-weight: 400 ; font-family: &amp;#34;times new roman&amp;#34; ; font-size: 12pt&quot;&gt;)&lt;/span&gt;" style="shape=folder;fontStyle=1;spacingTop=10;tabWidth=50;tabHeight=17;tabPosition=left;html=1;rounded=0;shadow=0;comic=0;labelBackgroundColor=none;strokeColor=#000000;strokeWidth=1;fillColor=#ffffff;fontFamily=Verdana;fontSize=10;fontColor=#000000;align=center;" vertex="1" parent="1">
          <mxGeometry x="1250" y="1350" width="250" height="70" as="geometry" />
        </mxCell>
        <mxCell id="MS7-FI-OsCwsyewMh9CC-59" value="&amp;lt;&amp;lt;Subsystem&amp;gt;&amp;gt;&lt;br&gt;&lt;b&gt;Personnel &amp;amp; Election&lt;/b&gt;" style="text;html=1;strokeColor=none;fillColor=none;align=center;verticalAlign=middle;whiteSpace=wrap;rounded=0;" vertex="1" parent="1">
          <mxGeometry x="1285" y="1080" width="215" height="20" as="geometry" />
        </mxCell>
        <mxCell id="MS7-FI-OsCwsyewMh9CC-63" style="edgeStyle=none;rounded=0;html=1;dashed=1;labelBackgroundColor=none;startFill=0;endArrow=open;endFill=0;endSize=10;fontFamily=Verdana;fontSize=10;entryX=0;entryY=0;entryPerimeter=0;entryDx=25;entryDy=0;exitX=0.5;exitY=1;exitDx=0;exitDy=0;exitPerimeter=0;" edge="1" parent="1" source="MS7-FI-OsCwsyewMh9CC-64" target="MS7-FI-OsCwsyewMh9CC-57">
          <mxGeometry relative="1" as="geometry">
            <mxPoint x="1506" y="1152.75" as="sourcePoint" />
            <mxPoint x="1638.7" y="1185" as="targetPoint" />
          </mxGeometry>
        </mxCell>
        <mxCell id="MS7-FI-OsCwsyewMh9CC-64" value="Personnel Management&lt;br&gt;&lt;span style=&quot;font-weight: 400 ; font-family: &amp;#34;times new roman&amp;#34; ; font-size: 12pt&quot;&gt;(&lt;/span&gt;&lt;span style=&quot;font-weight: normal&quot;&gt;&lt;span style=&quot;font-family: &amp;#34;times new roman&amp;#34; ; font-size: 12pt&quot;&gt;from&amp;nbsp;&lt;/span&gt;&lt;/span&gt;&lt;span style=&quot;font-family: &amp;#34;helvetica&amp;#34; ; font-size: 12px ; font-weight: normal&quot;&gt;Personnel &amp;amp; Election&lt;/span&gt;&lt;span style=&quot;font-weight: 400 ; font-family: &amp;#34;times new roman&amp;#34; ; font-size: 12pt&quot;&gt;)&lt;/span&gt;" style="shape=folder;fontStyle=1;spacingTop=10;tabWidth=50;tabHeight=17;tabPosition=left;html=1;rounded=0;shadow=0;comic=0;labelBackgroundColor=none;strokeColor=#000000;strokeWidth=1;fillColor=#ffffff;fontFamily=Verdana;fontSize=10;fontColor=#000000;align=center;" vertex="1" parent="1">
          <mxGeometry x="1250" y="1120" width="250" height="70" as="geometry" />
        </mxCell>
        <mxCell id="MS7-FI-OsCwsyewMh9CC-65" value="Personnel Status&lt;br&gt;&lt;span style=&quot;font-weight: 400 ; font-family: &amp;#34;times new roman&amp;#34; ; font-size: 12pt&quot;&gt;(&lt;/span&gt;&lt;span style=&quot;font-weight: normal&quot;&gt;&lt;span style=&quot;font-family: &amp;#34;times new roman&amp;#34; ; font-size: 12pt&quot;&gt;from&amp;nbsp;&lt;/span&gt;&lt;/span&gt;&lt;span style=&quot;font-size: 12px ; font-family: &amp;#34;helvetica&amp;#34; ; font-weight: normal&quot;&gt;Personnel &amp;amp; Election&lt;/span&gt;&lt;span style=&quot;font-weight: 400 ; font-family: &amp;#34;times new roman&amp;#34; ; font-size: 12pt&quot;&gt;)&lt;/span&gt;" style="shape=folder;fontStyle=1;spacingTop=10;tabWidth=50;tabHeight=17;tabPosition=left;html=1;rounded=0;shadow=0;comic=0;labelBackgroundColor=none;strokeColor=#000000;strokeWidth=1;fillColor=#ffffff;fontFamily=Verdana;fontSize=10;fontColor=#000000;align=center;" vertex="1" parent="1">
          <mxGeometry x="1370" y="1230" width="250" height="70" as="geometry" />
        </mxCell>
        <mxCell id="MS7-FI-OsCwsyewMh9CC-67" style="edgeStyle=none;rounded=0;html=1;dashed=1;labelBackgroundColor=none;startFill=0;endArrow=open;endFill=0;endSize=10;fontFamily=Verdana;fontSize=10;entryX=0;entryY=0;entryPerimeter=0;entryDx=250;entryDy=56.75;exitX=0;exitY=0;exitDx=0;exitDy=43.5;exitPerimeter=0;" edge="1" parent="1" source="MS7-FI-OsCwsyewMh9CC-57" target="6e0c8c40b5770093-44">
          <mxGeometry relative="1" as="geometry">
            <mxPoint x="1260.5" y="1270" as="sourcePoint" />
            <mxPoint x="965.5" y="1341.5" as="targetPoint" />
          </mxGeometry>
        </mxCell>
        <mxCell id="MS7-FI-OsCwsyewMh9CC-68" style="edgeStyle=none;rounded=0;html=1;dashed=1;labelBackgroundColor=none;startFill=0;endArrow=open;endFill=0;endSize=10;fontFamily=Verdana;fontSize=10;entryX=0;entryY=0;entryPerimeter=0;entryDx=234.5;entryDy=56.75;exitX=0;exitY=0;exitDx=0;exitDy=70;exitPerimeter=0;" edge="1" parent="1" source="MS7-FI-OsCwsyewMh9CC-57" target="MS7-FI-OsCwsyewMh9CC-23">
          <mxGeometry relative="1" as="geometry">
            <mxPoint x="1168.82" y="1331.75" as="sourcePoint" />
            <mxPoint x="1034.32" y="1300" as="targetPoint" />
          </mxGeometry>
        </mxCell>
        <mxCell id="MS7-FI-OsCwsyewMh9CC-69" style="edgeStyle=none;rounded=0;html=1;dashed=1;labelBackgroundColor=none;startFill=0;endArrow=open;endFill=0;endSize=10;fontFamily=Verdana;fontSize=10;entryX=0;entryY=0;entryPerimeter=0;entryDx=150;entryDy=17;exitX=0.8;exitY=1;exitDx=0;exitDy=0;exitPerimeter=0;" edge="1" parent="1" source="MS7-FI-OsCwsyewMh9CC-64" target="MS7-FI-OsCwsyewMh9CC-65">
          <mxGeometry relative="1" as="geometry">
            <mxPoint x="1385" y="1200" as="sourcePoint" />
            <mxPoint x="1205" y="1310" as="targetPoint" />
          </mxGeometry>
        </mxCell>
        <mxCell id="MS7-FI-OsCwsyewMh9CC-70" value="" style="shape=folder;fontStyle=1;spacingTop=10;tabWidth=123;tabHeight=24;tabPosition=left;html=1;rounded=0;shadow=0;comic=0;labelBackgroundColor=none;strokeColor=#000000;strokeWidth=1;fillColor=#ffffff;fontFamily=Verdana;fontSize=10;fontColor=#000000;align=center;" vertex="1" parent="1">
          <mxGeometry x="1710" y="1050" width="710" height="440" as="geometry" />
        </mxCell>
        <mxCell id="MS7-FI-OsCwsyewMh9CC-75" value="Spacecraft Information&lt;br style=&quot;font-size: 12px ; font-family: &amp;#34;helvetica&amp;#34; ; font-weight: 400&quot;&gt;&lt;span style=&quot;font-size: 12px ; font-family: &amp;#34;helvetica&amp;#34; ; font-weight: normal&quot;&gt;(from Exceptional Circumstances Management)&lt;/span&gt;" style="shape=folder;fontStyle=1;spacingTop=10;tabWidth=50;tabHeight=17;tabPosition=left;html=1;rounded=0;shadow=0;comic=0;labelBackgroundColor=none;strokeColor=#000000;strokeWidth=1;fillColor=#ffffff;fontFamily=Verdana;fontSize=10;fontColor=#000000;align=center;" vertex="1" parent="1">
          <mxGeometry x="1770" y="1350" width="255.5" height="70" as="geometry" />
        </mxCell>
        <mxCell id="MS7-FI-OsCwsyewMh9CC-76" value="Emergency wake-up&lt;br style=&quot;font-size: 12px ; font-family: &amp;#34;helvetica&amp;#34; ; font-weight: 400&quot;&gt;&lt;span style=&quot;font-size: 12px ; font-family: &amp;#34;helvetica&amp;#34; ; font-weight: normal&quot;&gt;(from Exceptional Circumstances Management)&lt;/span&gt;" style="shape=folder;fontStyle=1;spacingTop=10;tabWidth=50;tabHeight=17;tabPosition=left;html=1;rounded=0;shadow=0;comic=0;labelBackgroundColor=none;strokeColor=#000000;strokeWidth=1;fillColor=#ffffff;fontFamily=Verdana;fontSize=10;fontColor=#000000;align=center;" vertex="1" parent="1">
          <mxGeometry x="1770" y="1140" width="280" height="70" as="geometry" />
        </mxCell>
        <mxCell id="MS7-FI-OsCwsyewMh9CC-77" value="&amp;lt;&amp;lt;Subsystem&amp;gt;&amp;gt;&lt;br&gt;&lt;b&gt;Exceptional Circumstances Management&lt;/b&gt;" style="text;html=1;strokeColor=none;fillColor=none;align=center;verticalAlign=middle;whiteSpace=wrap;rounded=0;" vertex="1" parent="1">
          <mxGeometry x="1940" y="1080" width="262.5" height="20" as="geometry" />
        </mxCell>
        <mxCell id="MS7-FI-OsCwsyewMh9CC-80" style="edgeStyle=none;rounded=0;html=1;dashed=1;labelBackgroundColor=none;startFill=0;endArrow=open;endFill=0;endSize=10;fontFamily=Verdana;fontSize=10;exitX=0.5;exitY=1;exitDx=0;exitDy=0;exitPerimeter=0;entryX=0;entryY=0;entryDx=25;entryDy=0;entryPerimeter=0;" edge="1" parent="1" source="MS7-FI-OsCwsyewMh9CC-76" target="MS7-FI-OsCwsyewMh9CC-75">
          <mxGeometry relative="1" as="geometry">
            <mxPoint x="2173.5003336456007" y="1340" as="sourcePoint" />
            <mxPoint x="2050" y="1410.25" as="targetPoint" />
          </mxGeometry>
        </mxCell>
        <mxCell id="MS7-FI-OsCwsyewMh9CC-81" style="edgeStyle=none;rounded=0;html=1;dashed=1;labelBackgroundColor=none;startFill=0;endArrow=open;endFill=0;endSize=10;fontFamily=Verdana;fontSize=10;entryX=0;entryY=0;entryPerimeter=0;entryDx=152.75;entryDy=17;exitX=0.5;exitY=1;exitDx=0;exitDy=0;exitPerimeter=0;" edge="1" parent="1" source="MS7-FI-OsCwsyewMh9CC-82" target="MS7-FI-OsCwsyewMh9CC-75">
          <mxGeometry relative="1" as="geometry">
            <mxPoint x="2096" y="1152.75" as="sourcePoint" />
            <mxPoint x="2228.7" y="1185" as="targetPoint" />
          </mxGeometry>
        </mxCell>
        <mxCell id="MS7-FI-OsCwsyewMh9CC-82" value="&lt;font face=&quot;Helvetica&quot;&gt;Final Plan&lt;/font&gt;&lt;br style=&quot;font-family: &amp;#34;helvetica&amp;#34; ; font-size: 12px ; font-weight: 400&quot;&gt;&lt;span style=&quot;font-family: &amp;#34;helvetica&amp;#34; ; font-size: 12px ; font-weight: normal&quot;&gt;(from Exceptional Circumstances Management)&lt;/span&gt;" style="shape=folder;fontStyle=1;spacingTop=10;tabWidth=50;tabHeight=17;tabPosition=left;html=1;rounded=0;shadow=0;comic=0;labelBackgroundColor=none;strokeColor=#000000;strokeWidth=1;fillColor=#ffffff;fontFamily=Verdana;fontSize=10;fontColor=#000000;align=center;" vertex="1" parent="1">
          <mxGeometry x="2090" y="1140" width="270" height="70" as="geometry" />
        </mxCell>
        <mxCell id="MS7-FI-OsCwsyewMh9CC-83" value="Emergency warning and prevention&lt;br style=&quot;font-size: 12px ; font-family: &amp;#34;helvetica&amp;#34; ; font-weight: 400&quot;&gt;&lt;span style=&quot;font-size: 12px ; font-family: &amp;#34;helvetica&amp;#34; ; font-weight: normal&quot;&gt;(from Exceptional Circumstances Management)&lt;/span&gt;" style="shape=folder;fontStyle=1;spacingTop=10;tabWidth=50;tabHeight=17;tabPosition=left;html=1;rounded=0;shadow=0;comic=0;labelBackgroundColor=none;strokeColor=#000000;strokeWidth=1;fillColor=#ffffff;fontFamily=Verdana;fontSize=10;fontColor=#000000;align=center;" vertex="1" parent="1">
          <mxGeometry x="2080" y="1350" width="280" height="70" as="geometry" />
        </mxCell>
        <mxCell id="MS7-FI-OsCwsyewMh9CC-84" style="edgeStyle=none;rounded=0;html=1;dashed=1;labelBackgroundColor=none;startFill=0;endArrow=open;endFill=0;endSize=10;fontFamily=Verdana;fontSize=10;exitX=0;exitY=0;exitDx=0;exitDy=17;exitPerimeter=0;entryX=0;entryY=0;entryDx=255.5;entryDy=30.25;entryPerimeter=0;" edge="1" parent="1" source="MS7-FI-OsCwsyewMh9CC-83" target="MS7-FI-OsCwsyewMh9CC-75">
          <mxGeometry relative="1" as="geometry">
            <mxPoint x="2240" y="1210" as="sourcePoint" />
            <mxPoint x="1923.0165000000002" y="1348.83" as="targetPoint" />
          </mxGeometry>
        </mxCell>
        <mxCell id="MS7-FI-OsCwsyewMh9CC-85" style="edgeStyle=none;rounded=0;html=1;dashed=1;labelBackgroundColor=none;startFill=0;endArrow=open;endFill=0;endSize=10;fontFamily=Verdana;fontSize=10;exitX=0.036;exitY=1;exitDx=0;exitDy=0;exitPerimeter=0;entryX=0;entryY=0;entryDx=250.00000000000003;entryDy=43.5;entryPerimeter=0;" edge="1" parent="1" source="MS7-FI-OsCwsyewMh9CC-76" target="MS7-FI-OsCwsyewMh9CC-57">
          <mxGeometry relative="1" as="geometry">
            <mxPoint x="1920" y="1219.9999999999998" as="sourcePoint" />
            <mxPoint x="1908.5165000000002" y="1378.83" as="targetPoint" />
          </mxGeometry>
        </mxCell>
        <mxCell id="MS7-FI-OsCwsyewMh9CC-86" style="edgeStyle=none;rounded=0;html=1;dashed=1;labelBackgroundColor=none;startFill=0;endArrow=open;endFill=0;endSize=10;fontFamily=Verdana;fontSize=10;entryX=0.509;entryY=0.079;entryPerimeter=0;entryDx=0;entryDy=0;exitX=0.5;exitY=1;exitDx=0;exitDy=0;exitPerimeter=0;" edge="1" parent="1" source="6e0c8c40b5770093-72" target="6e0c8c40b5770093-47">
          <mxGeometry relative="1" as="geometry">
            <mxPoint x="1390" y="1630" as="sourcePoint" />
            <mxPoint x="1290" y="1690.25" as="targetPoint" />
          </mxGeometry>
        </mxCell>
        <mxCell id="MS7-FI-OsCwsyewMh9CC-87" style="edgeStyle=none;rounded=0;html=1;dashed=1;labelBackgroundColor=none;startFill=0;endArrow=open;endFill=0;endSize=10;fontFamily=Verdana;fontSize=10;entryX=0.378;entryY=0.32;entryPerimeter=0;exitX=1.004;exitY=0.939;exitDx=0;exitDy=0;exitPerimeter=0;entryDx=0;entryDy=0;" edge="1" parent="1" source="6e0c8c40b5770093-33" target="MS7-FI-OsCwsyewMh9CC-21">
          <mxGeometry relative="1" as="geometry">
            <mxPoint x="1031.75" y="1480" as="sourcePoint" />
            <mxPoint x="924.5" y="1550.25" as="targetPoint" />
          </mxGeometry>
        </mxCell>
        <mxCell id="MS7-FI-OsCwsyewMh9CC-88" style="edgeStyle=none;rounded=0;html=1;dashed=1;labelBackgroundColor=none;startFill=0;endArrow=open;endFill=0;endSize=10;fontFamily=Verdana;fontSize=10;entryX=0.468;entryY=0.32;entryPerimeter=0;entryDx=0;entryDy=0;exitX=0.5;exitY=1;exitDx=0;exitDy=0;exitPerimeter=0;" edge="1" parent="1" source="MS7-FI-OsCwsyewMh9CC-52" target="MS7-FI-OsCwsyewMh9CC-21">
          <mxGeometry relative="1" as="geometry">
            <mxPoint x="1337.5" y="1656.75" as="sourcePoint" />
            <mxPoint x="1133" y="1510" as="targetPoint" />
          </mxGeometry>
        </mxCell>
        <mxCell id="MS7-FI-OsCwsyewMh9CC-89" style="edgeStyle=none;rounded=0;html=1;dashed=1;labelBackgroundColor=none;startFill=0;endArrow=open;endFill=0;endSize=10;fontFamily=Verdana;fontSize=10;entryX=0.669;entryY=0.2;entryDx=0;entryDy=0;entryPerimeter=0;exitX=-0.001;exitY=0.855;exitDx=0;exitDy=0;exitPerimeter=0;" edge="1" parent="1" source="MS7-FI-OsCwsyewMh9CC-70" target="MS7-FI-OsCwsyewMh9CC-21">
          <mxGeometry relative="1" as="geometry">
            <mxPoint x="1920" y="1220" as="sourcePoint" />
            <mxPoint x="1805" y="1360" as="targetPoint" />
          </mxGeometry>
        </mxCell>
      </root>
    </mxGraphModel>
  </diagram>
</mxfile>
